<svg xmlns="http://www.w3.org/2000/svg" style="display:none">

  <!-- ── Compartidos (candidate y company) ── -->
  <symbol id="icon-home" viewBox="0 -960 960 960">
    <path d="M240-200h120v-240h240v240h120v-360L480-740 240-560v360Zm-80 80v-480l320-240 320 240v480H520v-240h-80v240H160Zm320-350Z"/>
  </symbol>

  <symbol id="icon-settings" viewBox="0 -960 960 960">
    <path d="m370-80-16-128q-13-5-24.5-12T307-235l-119 50L78-375l103-78q-1-7-1-13.5v-27q0-6.5 1-13.5L78-585l110-190 119 50q11-8 23-15t24-12l16-128h220l16 128q13 5 24.5 12t22.5 15l119-50 110 190-103 78q1 7 1 13.5v27q0 6.5-2 13.5l103 78-110 190-118-50q-11 8-23 15t-24 12L590-80H370Zm70-80h79l14-106q31-8 57.5-23.5T639-327l99 41 39-68-86-65q5-14 7-29.5t2-31.5q0-16-2-31.5t-7-29.5l86-65-39-68-99 42q-22-23-48.5-38.5T533-694l-13-106h-79l-14 106q-31 8-57.5 23.5T321-633l-99-41-39 68 86 64q-5 15-7 30t-2 32q0 16 2 31t7 30l-86 65 39 68 99-42q22 23 48.5 38.5T427-266l13 106Zm42-180q58 0 99-41t41-99q0-58-41-99t-99-41q-59 0-99.5 41T342-480q0 58 40.5 99t99.5 41Zm-2-140Z"/>
  </symbol>

  <symbol id="icon-saved" viewBox="0 -960 960 960">
    <path d="m389-400 91-55 91 55-24-104 80-69-105-9-42-98-42 98-105 9 80 69-24 104ZM200-120v-640q0-33 23.5-56.5T280-840h400q33 0 56.5 23.5T760-760v640L480-240 200-120Zm80-122 200-86 200 86v-518H280v518Zm0-518h400-400Z"/>
  </symbol>

  <symbol id="icon-logout" viewBox="0 -960 960 960">
    <path d="M200-120q-33 0-56.5-23.5T120-200v-560q0-33 23.5-56.5T200-840h280v80H200v560h280v80H200Zm440-160-55-58 102-102H360v-80h327L585-622l55-58 200 200-200 200Z"/>
  </symbol>

  <!-- ── Candidato ── -->
  <symbol id="icon-jobs" viewBox="0 -960 960 960">
    <path d="M784-120 532-372q-30 24-69 38t-83 14q-109 0-184.5-75.5T120-580q0-109 75.5-184.5T380-840q109 0 184.5 75.5T640-580q0 44-14 83t-38 69l252 252-56 56ZM380-400q75 0 127.5-52.5T560-580q0-75-52.5-127.5T380-760q-75 0-127.5 52.5T200-580q0 75 52.5 127.5T380-400Z"/>
  </symbol>

  <symbol id="icon-profile" viewBox="0 -960 960 960">
    <path d="M367-527q-47-47-47-113t47-113q47-47 113-47t113 47q47 47 47 113t-47 113q-47 47-113 47t-113-47ZM160-160v-112q0-34 17.5-62.5T224-378q62-31 126-46.5T480-440q66 0 130 15.5T736-378q29 15 46.5 43.5T800-272v112H160Zm80-80h480v-32q0-11-5.5-20T700-306q-54-27-109-40.5T480-360q-56 0-111 13.5T260-306q-9 5-14.5 14t-5.5 20v32Zm296.5-343.5Q560-607 560-640t-23.5-56.5Q513-720 480-720t-56.5 23.5Q400-673 400-640t23.5 56.5Q447-560 480-560t56.5-23.5ZM480-640Zm0 400Z"/>
  </symbol>

  <symbol id="icon-cv" viewBox="0 -960 960 960">
    <path d="M480-400q33 0 56.5-23.5T560-480q0-33-23.5-56.5T480-560q-33 0-56.5 23.5T400-480q0 33 23.5 56.5T480-400ZM320-240h320v-23q0-24-13-44t-36-30q-26-11-53.5-17t-57.5-6q-30 0-57.5 6T369-337q-23 10-36 30t-13 44v23ZM720-80H240q-33 0-56.5-23.5T160-160v-640q0-33 23.5-56.5T240-880h320l240 240v480q0 33-23.5 56.5T720-80Zm0-80v-446L526-800H240v640h480Zm-480 0v-640 640Z"/>
  </symbol>

  <symbol id="icon-applications" viewBox="0 -960 960 960">
    <path d="M200-120q-33 0-56.5-23.5T120-200v-560q0-33 23.5-56.5T200-840h168q13-36 43.5-58t68.5-22q38 0 68.5 22t43.5 58h168q33 0 56.5 23.5T840-760v268q-19-9-39-15.5t-41-9.5v-243H200v560h242q3 22 9.5 42t15.5 38H200Zm0-120v40-560 243-3 280Zm80-40h163q3-21 9.5-41t14.5-39H280v80Zm0-160h244q32-30 71.5-50t84.5-27v-3H280v80Zm0-160h400v-80H280v80Zm221.5-198.5Q510-807 510-820t-8.5-21.5Q493-850 480-850t-21.5 8.5Q450-833 450-820t8.5 21.5Q467-790 480-790t21.5-8.5ZM720-40q-83 0-141.5-58.5T520-240q0-83 58.5-141.5T720-440q83 0 141.5 58.5T920-240q0 83-58.5 141.5T720-40Zm-20-80h40v-100h100v-40H740v-100h-40v100H600v40h100v100Z"/>
  </symbol>

  <!-- ── Empresa ── -->
  <symbol id="icon-candidates" viewBox="0 -960 960 960">
    <path d="M360-240ZM40-160v-112q0-34 17.5-62.5T104-378q62-31 126-46.5T360-440q32 0 64.5 3.5T489-425q-13 17-22.5 35.5T451-351q-23-5-45.5-7t-45.5-2q-56 0-111 13.5T140-306q-9 5-14.5 14t-5.5 20v32h323q4 22 11 42t18 38H40Zm207-367q-47-47-47-113t47-113q47-47 113-47t113 47q47 47 47 113t-47 113q-47 47-113 47t-113-47Zm466 0q-47 47-113 47-11 0-28-2.5t-28-5.5q27-32 41.5-71t14.5-81q0-42-14.5-81T544-792q14-5 28-6.5t28-1.5q66 0 113 47t47 113q0 66-47 113Zm-296.5-56.5Q440-607 440-640t-23.5-56.5Q393-720 360-720t-56.5 23.5Q280-673 280-640t23.5 56.5Q327-560 360-560t56.5-23.5ZM360-640Zm376.5 420q22.5-20 23.5-60 1-34-22.5-57T680-360q-34 0-57 23t-23 57q0 34 23 57t57 23q34 0 56.5-20ZM680-120q-66 0-113-47t-47-113q0-66 47-113t113-47q66 0 113 47t47 113q0 23-5.5 43.5T818-198L920-96l-56 56-102-102q-18 11-38.5 16.5T680-120Z"/>
  </symbol>

  <symbol id="icon-post-job" viewBox="0 -960 960 960">
    <path d="M440-440H200v-80h240v-240h80v240h240v80H520v240h-80v-240Z"/>
  </symbol>

  <symbol id="icon-my-jobs" viewBox="0 -960 960 960">
    <path d="M200-120q-33 0-56.5-23.5T120-200v-560q0-33 23.5-56.5T200-840h168q13-36 43.5-58t68.5-22q38 0 68.5 22t43.5 58h168q33 0 56.5 23.5T840-760v560q0 33-23.5 56.5T760-120H200Zm0-80h560v-560H200v560Zm80-80h280v-80H280v80Zm0-160h400v-80H280v80Zm0-160h400v-80H280v80Zm221.5-198.5Q510-807 510-820t-8.5-21.5Q493-850 480-850t-21.5 8.5Q450-833 450-820t8.5 21.5Q467-790 480-790t21.5-8.5ZM200-200v-560 560Z"/>
  </symbol>

  <symbol id="icon-company-applications" viewBox="0 -960 960 960">
    <path d="M555-435q-35-35-35-85t35-85q35-35 85-35t85 35q35 35 35 85t-35 85q-35 35-85 35t-85-35ZM400-160v-76q0-21 10-40t28-30q45-27 95.5-40.5T640-360q56 0 106.5 13.5T842-306q18 11 28 30t10 40v76H400Zm86-80h308q-35-20-74-30t-80-10q-41 0-80 10t-74 30Zm182.5-251.5Q680-503 680-520t-11.5-28.5Q657-560 640-560t-28.5 11.5Q600-537 600-520t11.5 28.5Q623-480 640-480t28.5-11.5ZM640-520Zm0 280ZM120-400v-80h320v80H120Zm0-320v-80h480v80H120Zm324 160H120v-80h360q-14 17-22.5 37T444-560Z"/>
  </symbol>

</svg>